<svg xmlns="http://www.w3.org/2000/svg" viewBox="0 0 320 240" fill="none">
  <rect width="320" height="240" fill="#fbf7ed"/>
  <rect x="20" y="40" width="280" height="180" rx="16" fill="#fffaf1" stroke="#263f2b" stroke-width="2"/>
  <rect x="20" y="40" width="280" height="44" rx="16" fill="#263f2b"/>
  <rect x="20" y="64" width="280" height="20" fill="#263f2b"/>
  <circle cx="50" cy="30" r="12" fill="#8d3d2f"/>
  <circle cx="270" cy="30" r="12" fill="#18FF9A"/>
  <text x="160" y="68" text-anchor="middle" fill="#f5d38d" font-family="Inter,Arial,sans-serif" font-size="14" font-weight="900">CALENDARIO</text>
  <!-- Month rows -->
  <rect x="30" y="96" width="60" height="28" rx="8" fill="#f1e8d8"/>
  <text x="60" y="114" text-anchor="middle" fill="#263f2b" font-family="Inter,Arial,sans-serif" font-size="11" font-weight="800">Ene</text>
  <rect x="100" y="96" width="60" height="28" rx="8" fill="#f1e8d8"/>
  <text x="130" y="114" text-anchor="middle" fill="#263f2b" font-family="Inter,Arial,sans-serif" font-size="11" font-weight="800">Feb</text>
  <rect x="170" y="96" width="60" height="28" rx="8" fill="#c98b37" opacity="0.2"/>
  <rect x="170" y="96" width="60" height="28" rx="8" fill="none" stroke="#c98b37" stroke-width="2"/>
  <text x="200" y="114" text-anchor="middle" fill="#c98b37" font-family="Inter,Arial,sans-serif" font-size="11" font-weight="900">Mar</text>
  <rect x="240" y="96" width="50" height="28" rx="8" fill="#f1e8d8"/>
  <text x="265" y="114" text-anchor="middle" fill="#263f2b" font-family="Inter,Arial,sans-serif" font-size="11" font-weight="800">Abr</text>
  <rect x="30" y="134" width="60" height="28" rx="8" fill="#a66d42" opacity="0.15"/>
  <rect x="30" y="134" width="60" height="28" rx="8" fill="none" stroke="#a66d42" stroke-width="2"/>
  <text x="60" y="152" text-anchor="middle" fill="#a66d42" font-family="Inter,Arial,sans-serif" font-size="11" font-weight="900">May</text>
  <rect x="100" y="134" width="60" height="28" rx="8" fill="#a66d42" opacity="0.2"/>
  <rect x="100" y="134" width="60" height="28" rx="8" fill="none" stroke="#a66d42" stroke-width="2"/>
  <text x="130" y="152" text-anchor="middle" fill="#a66d42" font-family="Inter,Arial,sans-serif" font-size="11" font-weight="900">Jun</text>
  <rect x="170" y="134" width="60" height="28" rx="8" fill="#a66d42" opacity="0.3"/>
  <rect x="170" y="134" width="60" height="28" rx="8" fill="none" stroke="#8d3d2f" stroke-width="2"/>
  <text x="200" y="152" text-anchor="middle" fill="#8d3d2f" font-family="Inter,Arial,sans-serif" font-size="11" font-weight="900">Jul</text>
  <rect x="240" y="134" width="50" height="28" rx="8" fill="#8d3d2f" opacity="0.2"/>
  <rect x="240" y="134" width="50" height="28" rx="8" fill="none" stroke="#8d3d2f" stroke-width="2"/>
  <text x="265" y="152" text-anchor="middle" fill="#8d3d2f" font-family="Inter,Arial,sans-serif" font-size="11" font-weight="900">Ago</text>
  <rect x="30" y="172" width="60" height="28" rx="8" fill="#6f8d4d" opacity="0.2"/>
  <rect x="30" y="172" width="60" height="28" rx="8" fill="none" stroke="#6f8d4d" stroke-width="2"/>
  <text x="60" y="190" text-anchor="middle" fill="#6f8d4d" font-family="Inter,Arial,sans-serif" font-size="11" font-weight="800">Sep</text>
  <rect x="100" y="172" width="60" height="28" rx="8" fill="#f1e8d8"/>
  <text x="130" y="190" text-anchor="middle" fill="#263f2b" font-family="Inter,Arial,sans-serif" font-size="11" font-weight="800">Oct</text>
  <rect x="170" y="172" width="60" height="28" rx="8" fill="#f1e8d8"/>
  <text x="200" y="190" text-anchor="middle" fill="#263f2b" font-family="Inter,Arial,sans-serif" font-size="11" font-weight="800">Nov</text>
  <rect x="240" y="172" width="50" height="28" rx="8" fill="#f1e8d8"/>
  <text x="265" y="190" text-anchor="middle" fill="#263f2b" font-family="Inter,Arial,sans-serif" font-size="11" font-weight="800">Dic</text>
  <text x="160" y="225" text-anchor="middle" fill="#6f8d4d" font-family="Inter,Arial,sans-serif" font-size="11" font-weight="800" opacity="0.8">Manejo integrado por temporada</text>
</svg>