<svg xmlns="http://www.w3.org/2000/svg" viewBox="0 0 480 460" fill="none">
  <defs>
    <linearGradient id="rg" x1="0" y1="0" x2="0" y2="1">
      <stop offset="0%" stop-color="#c9a66b"/><stop offset="100%" stop-color="#8b6442"/>
    </linearGradient>
    <linearGradient id="tg" x1="0" y1="0" x2="1" y2="0">
      <stop offset="0%" stop-color="#7a5c3a"/><stop offset="50%" stop-color="#9b7a52"/><stop offset="100%" stop-color="#6b4a2d"/>
    </linearGradient>
    <linearGradient id="dr" x1="0" y1="0" x2="1" y2="0">
      <stop offset="0%" stop-color="#a66d42"/><stop offset="100%" stop-color="#8d3d2f"/>
    </linearGradient>
  </defs>
  <rect width="480" height="460" fill="#fbf7ed"/>
  <rect y="185" width="480" height="275" fill="url(#rg)" opacity="0.55"/>
  <path d="M0 185 L480 185" stroke="#b89050" stroke-width="3"/>
  <rect x="215" y="60" width="50" height="135" fill="url(#tg)" rx="4"/>
  <rect x="207" y="60" width="66" height="12" fill="#6b4a2d" rx="3"/>
  <path d="M240 72 Q195 28 155 40" stroke="#7a5c3a" stroke-width="8" fill="none" stroke-linecap="round"/>
  <path d="M240 72 Q285 25 338 36" stroke="#7a5c3a" stroke-width="8" fill="none" stroke-linecap="round"/>
  <path d="M240 95 Q190 72 150 80" stroke="#7a5c3a" stroke-width="6" fill="none" stroke-linecap="round"/>
  <path d="M240 95 Q298 68 350 76" stroke="#7a5c3a" stroke-width="6" fill="none" stroke-linecap="round"/>
  <ellipse cx="153" cy="34" rx="26" ry="15" fill="#9ba848" transform="rotate(-32 153 34)"/>
  <ellipse cx="330" cy="28" rx="30" ry="17" fill="#8a9640" transform="rotate(18 330 28)"/>
  <ellipse cx="148" cy="74" rx="20" ry="11" fill="#c9a030" opacity="0.8" transform="rotate(-18 148 74)"/>
  <ellipse cx="340" cy="70" rx="24" ry="13" fill="#b89028" opacity="0.8" transform="rotate(25 340 70)"/>
  <ellipse cx="200" cy="25" rx="18" ry="10" fill="#c4a830" transform="rotate(5 200 25)"/>
  <ellipse cx="270" cy="20" rx="20" ry="11" fill="#95a040" transform="rotate(-10 270 20)"/>
  <ellipse cx="215" cy="42" rx="16" ry="9" fill="#a88020" opacity="0.7" transform="rotate(-20 215 42)"/>
  <ellipse cx="295" cy="38" rx="19" ry="10" fill="#b09028" opacity="0.7" transform="rotate(15 295 38)"/>
  <ellipse cx="240" cy="190" rx="42" ry="17" fill="#a66d42" opacity="0.45"/>
  <path d="M240 200 Q282 238 318 268" stroke="#a66d42" stroke-width="10" fill="none" stroke-linecap="round" opacity="0.9"/>
  <path d="M240 200 Q285 242 262 285" stroke="#a66d42" stroke-width="9" fill="none" stroke-linecap="round" opacity="0.85"/>
  <path d="M240 200 Q198 242 162 272" stroke="#a66d42" stroke-width="9" fill="none" stroke-linecap="round" opacity="0.88"/>
  <path d="M240 200 Q205 238 178 258" stroke="#a66d42" stroke-width="7" fill="none" stroke-linecap="round" opacity="0.82"/>
  <path d="M315 250 L322 268 L314 280 L320 296" stroke="#7a3010" stroke-width="3" fill="none" stroke-linecap="round"/>
  <path d="M250 268 L256 283 L248 295" stroke="#7a3010" stroke-width="3" fill="none" stroke-linecap="round"/>
  <path d="M190 258 L196 272 L188 284" stroke="#7a3010" stroke-width="3" fill="none" stroke-linecap="round"/>
  <path d="M240 200 Q320 228 385 278" stroke="#9b7a52" stroke-width="7" fill="none" stroke-linecap="round" opacity="0.6"/>
  <path d="M240 200 Q175 218 105 262" stroke="#9b7a52" stroke-width="6" fill="none" stroke-linecap="round" opacity="0.6"/>
  <circle cx="228" cy="193" r="5" fill="#c98b37"/>
  <circle cx="244" cy="198" r="5" fill="#c98b37"/>
  <circle cx="237" cy="204" r="5" fill="#c98b37"/>
  <line x1="275" y1="130" x2="365" y2="100" stroke="#f5d38d" stroke-width="1.5" opacity="0.9"/>
  <rect x="362" y="92" width="108" height="22" rx="6" fill="#263f2b" opacity="0.9"/>
  <text x="368" y="109" fill="#f5d38d" font-family="Inter,Arial,sans-serif" font-size="11" font-weight="800">Cuello del árbol</text>
  <line x1="280" y1="195" x2="390" y2="160" stroke="#f5d38d" stroke-width="1.5" opacity="0.9"/>
  <rect x="390" y="152" width="82" height="22" rx="6" fill="#8d3d2f" opacity="0.9"/>
  <text x="395" y="168" fill="white" font-family="Inter,Arial,sans-serif" font-size="11" font-weight="800">Daño activo</text>
  <line x1="320" y1="270" x2="428" y2="308" stroke="#f5d38d" stroke-width="1.5" opacity="0.9"/>
  <rect x="428" y="300" width="42" height="18" rx="6" fill="#a66d42" opacity="0.9"/>
  <text x="433" y="313" fill="white" font-family="Inter,Arial,sans-serif" font-size="10" font-weight="800">Raíces</text>
  <rect x="136" y="183" width="60" height="20" rx="6" fill="#c98b37" opacity="0.9"/>
  <text x="141" y="198" fill="white" font-family="Inter,Arial,sans-serif" font-size="9" font-weight="900">Zona puesta</text>
  <line x1="60" y1="185" x2="60" y2="220" stroke="#f5d38d" stroke-width="1.5" opacity="0.9"/>
  <rect x="15" y="190" width="42" height="18" rx="6" fill="#263f2b" opacity="0.9"/>
  <text x="18" y="203" fill="#f5d38d" font-family="Inter,Arial,sans-serif" font-size="9" font-weight="700">Suelo</text>
  <text x="240" y="430" text-anchor="middle" fill="#263f2b" font-family="Inter,Arial,sans-serif" font-size="12" font-weight="700" opacity="0.75">Daño bajo tierra en almendro — primero parece sequía</text>
</svg>